<?xml version="1.0" encoding="UTF-8"?>
<svg id="Layer_1" data-name="Layer 1" xmlns="http://www.w3.org/2000/svg" viewBox="1.2 2 13.6 10.5">
  <defs>
    <style>
      .cls-1 {
        fill: #007c7c;
        stroke-width: 0px;
      }
    </style>
  </defs>
  <path class="cls-1" d="M9.25,11.24c.52,0,.94-.42.94-.94s-.42-.94-.94-.94-.94.42-.94.94.42.94.94.94Z"/>
  <path class="cls-1" d="M9.08,2.63h-2.17l-1.9,3.29-.98.43h.98c.36,0,.71.1,1.01.28l2.47,1.5h.76c1.37,0,2.48,1.11,2.48,2.48h0s-1.16,0-1.16,0c-.14.61-.68,1.06-1.33,1.06s-1.19-.45-1.33-1.06H2.31l-.51.88c.48.83.6,1.04,1.08,1.88h10.23l1.08-1.88L9.08,2.63Z"/>
</svg>