<?xml version="1.0" encoding="UTF-8"?>
<svg id="Layer_1" data-name="Layer 1" xmlns="http://www.w3.org/2000/svg" viewBox="2.5 4 27.5 21">
  <defs>
    <style>
      .cls-1 {
        fill: #007c7c;
        stroke-width: 0px;
      }
    </style>
  </defs>
  <path class="cls-1" d="M18.49,22.46c1.03,0,1.87-.84,1.87-1.87s-.84-1.87-1.87-1.87-1.87.84-1.87,1.87.84,1.87,1.87,1.87Z"/>
  <path class="cls-1" d="M18.16,5.31h-4.32l-3.78,6.55-1.96.85h1.94c.71,0,1.41.19,2.02.56l4.92,2.98h1.52c2.73,0,4.94,2.21,4.94,4.94h0s-2.3,0-2.3,0c-.28,1.21-1.36,2.11-2.65,2.11s-2.37-.91-2.65-2.11H4.67l-1.01,1.75c.96,1.66,1.2,2.08,2.16,3.74h20.36l2.16-3.74L18.16,5.31Z"/>
</svg>