<?xml version="1.0" encoding="UTF-8"?>
<svg id="Layer_1" data-name="Layer 1" xmlns="http://www.w3.org/2000/svg" viewBox="0 0 48 48">
  <defs>
    <style>
      .cls-1 {
        fill: #007c7c;
      }

      .cls-1, .cls-2 {
        stroke-width: 0px;
      }

      .cls-2 {
        fill: #fff;
      }
    </style>
  </defs>
  <rect class="cls-1" x="-2.8" y="-6.13" width="60.32" height="64.12"/>
  <g>
    <path class="cls-2" d="M27.72,33.66c1.55,0,2.8-1.26,2.8-2.8s-1.26-2.8-2.8-2.8-2.8,1.26-2.8,2.8,1.26,2.8,2.8,2.8Z"/>
    <path class="cls-2" d="M27.23,8h-6.47l-5.66,9.8-2.93,1.27h2.91c1.06,0,2.11.29,3.02.84l7.36,4.46h2.27c4.09,0,7.4,3.31,7.4,7.4h0s-3.45,0-3.45,0c-.42,1.81-2.03,3.16-3.97,3.16s-3.55-1.36-3.97-3.16H7.04l-1.51,2.62c1.44,2.49,1.8,3.11,3.23,5.6h30.49l3.23-5.6-15.24-26.4Z"/>
  </g>
</svg>