<?xml version="1.0" encoding="UTF-8"?>
<svg id="Layer_1" data-name="Layer 1" xmlns="http://www.w3.org/2000/svg" viewBox="0 0 500 450">
  <defs>
    <style>
      .cls-1 {
        fill: #007c7c;
        stroke-width: 0px;
      }
    </style>
  </defs>
  <path class="cls-1" d="M298.88,351.85c20.28,0,36.77-16.5,36.77-36.77s-16.5-36.78-36.77-36.78-36.77,16.5-36.77,36.78,16.5,36.77,36.77,36.77Z"/>
  <path class="cls-1" d="M292.43,15h-84.86l-74.27,128.64-38.52,16.68h38.19c13.96,0,27.66,3.83,39.61,11.06l96.66,58.58h29.85c53.65,0,97.15,43.5,97.15,97.15h0s-45.29,0-45.29,0c-5.49,23.73-26.69,41.52-52.07,41.52s-46.58-17.79-52.07-41.52H27.38l-19.87,34.41c18.86,32.66,23.57,40.83,42.43,73.49h400.12l42.43-73.49L292.43,15Z"/>
</svg>