<?xml version="1.0" encoding="UTF-8"?>
<svg id="Layer_2" data-name="Layer 2" xmlns="http://www.w3.org/2000/svg" viewBox="0 0 720 466.5">
  <defs>
    <style>
      .cls-1 {
        fill: #0fa3a3;
      }
    </style>
  </defs>
  <g id="Layer_1-2" data-name="Layer 1">
    <g id="logomark">
      <path class="cls-1" d="M699.9,253.34l-103.01-178.42C570.12,28.56,520.66,0,467.12,0h-214.24c-53.53,0-103,28.56-129.77,74.92L20.1,253.34c-41.38,71.67-16.82,163.31,54.84,204.69l12.34,7.12c4.78,2.76,10.89,1.12,13.65-3.66L316.74,87.7c19.22-33.3,67.29-33.3,86.51,0l215.82,373.81c2.76,4.78,8.87,6.41,13.65,3.66l12.34-7.12c71.67-41.38,96.22-133.02,54.84-204.69Z"/>
      <circle class="cls-1" cx="360" cy="347.46" r="63.7"/>
    </g>
  </g>
</svg>